<svg id="Layer_1" fill="#FFFFFF" height="512" viewBox="0 0 512 512" width="512" xmlns="http://www.w3.org/2000/svg" data-name="Layer 1"><path d="m104 292.945a6 6 0 0 0 -6 6v3.347a6 6 0 0 0 12 0v-3.347a6 6 0 0 0 -6-6z"/><path d="m104 319.032a6 6 0 0 0 -6 6v54.906a6 6 0 0 0 12 0v-54.906a6 6 0 0 0 -6-6z"/><path d="m486.372 78.359-193.1-58.1a6 6 0 0 0 -7.244 3.384l-27.678 64.632-32.585-61.185a6 6 0 0 0 -6.883-2.965l-193.112 52.964a6 6 0 0 0 -3.592 8.816l46.322 79.189-35.768 68.053a6 6 0 0 0 2.494 8.089l37.774 20.087v137.677a6.005 6.005 0 0 0 3.391 5.4l179.933 87a6.006 6.006 0 0 0 5.225 0l180-87a6.062 6.062 0 0 0 3.451-5.4v-137.743l37.649-20.021a6 6 0 0 0 2.494-8.089l-35.86-68.221 40.68-78.048a6 6 0 0 0 -3.591-8.519zm-449.888 8.235 180.944-49.628 32.9 61.78-172.262 58.927zm9.649 146.851 31.809-60.514 172.944 86.363-32.795 65.591zm206.867 242.989-168-81.2v-127.534l132.889 70.665a6 6 0 0 0 8.184-2.615l26.927-53.85zm5.938-226.534-168.067-83.925 168.067-57.491 168.062 57.491zm174.062 145.338-168 81.2v-194.289l26.8 53.605a6 6 0 0 0 8.183 2.615l133.017-70.731zm38.743-161.793-171.959 91.44-32.8-65.591 172.945-86.363zm-32.169-75.853-172.574-59.033 27.952-65.268 181.019 54.47z"/></svg>