<svg height="512" fill="#FFFFFF" viewBox="0 0 128 128" width="512" xmlns="http://www.w3.org/2000/svg"><path d="m100.271 28.023-18.309-5.48a1.75 1.75 0 0 0 -2.137 1.057l-2.858 7.5v.005l-3 7.87a1.749 1.749 0 0 0 .82 2.172l4.692 2.468-10.6 17.685 3.862-14.54a1.748 1.748 0 0 0 -.863-1.99l-5.009-2.693 2.744-13.2c0-.012 0-.023 0-.035l1.627-7.836a1.749 1.749 0 0 0 -1.214-2.031l-5.526-1.652a1.744 1.744 0 0 0 -1 0l-35.77 10.7a1.752 1.752 0 0 0 -1.25 1.677v38.25c0 8.684 4.131 18.031 11.632 26.322 7.02 7.759 16.277 13.74 25.4 16.408a1.761 1.761 0 0 0 .983 0c9.118-2.673 18.374-8.653 25.4-16.407 7.5-8.3 11.631-17.642 11.631-26.323v-38.25a1.751 1.751 0 0 0 -1.255-1.677zm-31.271 19.177-6.7 25.2a1.75 1.75 0 0 0 3.2 1.349l17.93-29.93a1.751 1.751 0 0 0 -.687-2.448l-4.957-2.607 1.869-4.9 10.363 3.1v30.986c0 12.132-13.613 26.085-26.019 30.776-12.405-4.691-26.019-18.644-26.019-30.776v-30.987l26.02-7.786 1.859.557-2.681 12.91a1.749 1.749 0 0 0 .884 1.9zm29.019 20.75c0 7.812-3.809 16.326-10.726 23.975a53.976 53.976 0 0 1 -23.293 15.248c-16.195-4.973-34.02-22.144-34.02-39.223v-36.95l34.02-10.174 3.491 1.042-.919 4.426-2.069-.62a1.729 1.729 0 0 0 -1.005 0l-27.77 8.31a1.751 1.751 0 0 0 -1.248 1.676v32.29c0 14.145 15.248 29.423 28.934 34.288a1.734 1.734 0 0 0 1.172 0c13.685-4.865 28.933-20.138 28.933-34.288v-32.29a1.751 1.751 0 0 0 -1.248-1.677l-11.365-3.4 1.61-4.221 15.503 4.638z"/></svg>